<svg width="1000" height="853" viewBox="0 0 1000 853" fill="none" xmlns="http://www.w3.org/2000/svg">
<g style="mix-blend-mode:screen" opacity="0.39" clip-path="url(#clip0_7_2117)">
<rect width="1000" height="1000" transform="translate(0 -15)" fill="black"/>
<g clip-path="url(#clip1_7_2117)">
<circle cx="78.5449" cy="28.6777" r="3.83042" fill="white"/>
<circle cx="972.499" cy="781.365" r="2.35503" fill="white"/>
<circle cx="299.021" cy="311.637" r="2.62396" fill="white"/>
<circle cx="146.133" cy="216.62" r="2.50211" fill="white"/>
<circle cx="592.961" cy="504.128" r="3.67919" fill="white"/>
<circle cx="671.231" cy="263.569" r="2.86866" fill="white"/>
<circle cx="294.509" cy="679.83" r="2.32134" fill="white"/>
<circle cx="213.168" cy="323.244" r="3.16576" fill="white"/>
<circle cx="71.042" cy="91.6987" r="2.44836" fill="white"/>
<circle cx="810.421" cy="227.301" r="3.6876" fill="white"/>
<circle cx="536.473" cy="763.138" r="2.70686" fill="white"/>
<circle cx="147.983" cy="468.222" r="3.0017" fill="white"/>
<circle cx="775.379" cy="555.998" r="4.33523" fill="white"/>
<circle cx="863.403" cy="660.827" r="3.02905" fill="white"/>
<circle cx="809.135" cy="329.238" r="2.29722" fill="white"/>
<circle cx="716.511" cy="74.0621" r="3.72846" fill="white"/>
<circle cx="941.891" cy="726.679" r="3.47849" fill="white"/>
<circle cx="532.778" cy="713.692" r="3.19444" fill="white"/>
<circle cx="277.213" cy="28.2193" r="3.2626" fill="white"/>
<circle cx="807.687" cy="383.161" r="4.44383" fill="white"/>
<circle cx="175.428" cy="621.548" r="4.27271" fill="white"/>
<circle cx="303.33" cy="525.248" r="3.48214" fill="white"/>
<circle cx="104.316" cy="436.959" r="2.31588" fill="white"/>
<circle cx="375.84" cy="80.5414" r="4.42349" fill="white"/>
<circle cx="438.924" cy="208.838" r="3.1131" fill="white"/>
<circle cx="472.657" cy="87.9031" r="2.95013" fill="white"/>
<circle cx="941.449" cy="460.36" r="3.71958" fill="white"/>
<circle cx="228.415" cy="217.29" r="3.62744" fill="white"/>
<circle cx="368.274" cy="58.9243" r="2.25227" fill="white"/>
<circle cx="707.525" cy="668.595" r="3.82194" fill="white"/>
<circle cx="417.595" cy="83.6075" r="3.40026" fill="white"/>
<circle cx="135.489" cy="550.716" r="3.38166" fill="white"/>
<circle cx="431.219" cy="384.647" r="2.96703" fill="white"/>
<circle cx="350.17" cy="355.865" r="4.01078" fill="white"/>
<circle cx="516.085" cy="506.237" r="2.91221" fill="white"/>
<circle cx="183.233" cy="-1.39406" r="4.29234" fill="white"/>
<circle cx="659.099" cy="446.774" r="3.38563" fill="white"/>
<circle cx="268.546" cy="607.574" r="3.17023" fill="white"/>
<circle cx="890.435" cy="90.428" r="3.19619" fill="white"/>
<circle cx="806.635" cy="283.769" r="3.96656" fill="white"/>
<circle cx="529.124" cy="603.338" r="2.50318" fill="white"/>
<circle cx="137.948" cy="402.747" r="2.28231" fill="white"/>
<circle cx="153.101" cy="689.435" r="4.40107" fill="white"/>
<circle cx="520.438" cy="558.436" r="3.67654" fill="white"/>
<circle cx="106.746" cy="464.376" r="4.26146" fill="white"/>
<circle cx="214.891" cy="673.768" r="3.39466" fill="white"/>
<circle cx="318.361" cy="214.607" r="3.92844" fill="white"/>
<circle cx="366.282" cy="384.17" r="2.40415" fill="white"/>
<circle cx="905.333" cy="213.113" r="3.54492" fill="white"/>
<circle cx="880.075" cy="802.646" r="2.72295" fill="white"/>
<circle cx="853.343" cy="465.718" r="3.13268" fill="white"/>
<circle cx="384.536" cy="534.805" r="3.62336" fill="white"/>
<circle cx="687.945" cy="227.788" r="2.50762" fill="white"/>
<circle cx="59.4531" cy="564.501" r="2.86348" fill="white"/>
<circle cx="398.901" cy="506.196" r="3.62649" fill="white"/>
<circle cx="207.133" cy="284.235" r="4.17226" fill="white"/>
<circle cx="12.5901" cy="808.921" r="4.02462" fill="white"/>
<circle cx="667.17" cy="744.815" r="2.2925" fill="white"/>
<circle cx="656.797" cy="616.859" r="2.29388" fill="white"/>
<circle cx="345.919" cy="459.354" r="4.46559" fill="white"/>
<circle cx="88.19" cy="89.6395" r="4.2409" fill="white"/>
<circle cx="344.499" cy="7.09524" r="2.74822" fill="white"/>
<circle cx="720.675" cy="433.757" r="4.42496" fill="white"/>
<circle cx="801.389" cy="573.217" r="3.0862" fill="white"/>
<circle cx="29.0046" cy="184.196" r="2.88402" fill="white"/>
<circle cx="58.9291" cy="455.655" r="2.74138" fill="white"/>
<circle cx="216.674" cy="852.558" r="3.62513" fill="white"/>
<circle cx="799.628" cy="36.4975" r="2.47553" fill="white"/>
<circle cx="604.79" cy="381.168" r="4.19072" fill="white"/>
<circle cx="120.998" cy="34.5277" r="4.4351" fill="white"/>
<circle cx="366.271" cy="481.63" r="2.46242" fill="white"/>
<circle cx="205.386" cy="62.518" r="2.53911" fill="white"/>
<circle cx="970.515" cy="592.592" r="3.36823" fill="white"/>
<circle cx="162.941" cy="489.62" r="3.10716" fill="white"/>
<circle cx="868.41" cy="354.284" r="3.17184" fill="white"/>
<circle cx="415.302" cy="518.543" r="4.14082" fill="white"/>
<circle cx="6.27772" cy="123.448" r="3.10175" fill="white"/>
<circle cx="217.686" cy="458.326" r="4.13377" fill="white"/>
<circle cx="274.222" cy="255.457" r="2.77123" fill="white"/>
<circle cx="636.766" cy="579.858" r="3.31977" fill="white"/>
<circle cx="691.429" cy="256.749" r="4.43931" fill="white"/>
<circle cx="852.044" cy="511.333" r="3.53889" fill="white"/>
<circle cx="641.351" cy="391.037" r="3.67684" fill="white"/>
<circle cx="172.521" cy="74.6178" r="3.68488" fill="white"/>
<circle cx="366.8" cy="578.349" r="2.92771" fill="white"/>
<circle cx="625.643" cy="832.67" r="4.16044" fill="white"/>
<circle cx="189.268" cy="314.648" r="2.42684" fill="white"/>
<circle cx="517.318" cy="695.068" r="3.73022" fill="white"/>
<circle cx="555.044" cy="679.942" r="3.36284" fill="white"/>
<circle cx="124.404" cy="839.279" r="3.06079" fill="white"/>
<circle cx="10.037" cy="200.861" r="2.96859" fill="white"/>
<circle cx="535.496" cy="773.869" r="3.8615" fill="white"/>
<circle cx="198.268" cy="788.522" r="2.41593" fill="white"/>
<circle cx="383.448" cy="265.22" r="3.2392" fill="white"/>
<circle cx="174.214" cy="108.547" r="4.17572" fill="white"/>
<circle cx="138.842" cy="796.592" r="4.03798" fill="white"/>
<circle cx="294.247" cy="568.815" r="4.31" fill="white"/>
<circle cx="28.3077" cy="649.83" r="3.72226" fill="white"/>
<circle cx="625.05" cy="179.806" r="2.71274" fill="white"/>
<circle cx="510.401" cy="197.245" r="4.07248" fill="white"/>
<circle cx="218.292" cy="837.487" r="4.24841" fill="white"/>
<circle cx="946.743" cy="172.904" r="3.85288" fill="white"/>
<circle cx="760.17" cy="814.671" r="2.30995" fill="white"/>
<circle cx="557.987" cy="641.874" r="4.01913" fill="white"/>
<circle cx="727.607" cy="559.331" r="3.195" fill="white"/>
<circle cx="409.798" cy="39.4877" r="4.26784" fill="white"/>
<circle cx="358.888" cy="519.158" r="3.62464" fill="white"/>
<circle cx="727.596" cy="395.898" r="4.47431" fill="white"/>
<circle cx="552.2" cy="439.445" r="4.42056" fill="white"/>
<circle cx="956.468" cy="385.562" r="3.07901" fill="white"/>
<circle cx="955.733" cy="201.18" r="3.2037" fill="white"/>
<circle cx="532.833" cy="415.726" r="3.29578" fill="white"/>
<circle cx="652.999" cy="689.745" r="3.74894" fill="white"/>
<circle cx="566.467" cy="190.646" r="2.65515" fill="white"/>
<circle cx="329.67" cy="613.407" r="3.58111" fill="white"/>
<circle cx="420.268" cy="382.671" r="3.37641" fill="white"/>
<circle cx="948.399" cy="19.9879" r="2.65451" fill="white"/>
<circle cx="235.887" cy="615.634" r="2.73516" fill="white"/>
<circle cx="882.886" cy="126.064" r="2.30453" fill="white"/>
<circle cx="33.313" cy="841.872" r="2.28318" fill="white"/>
<circle cx="531.493" cy="192.509" r="4.37307" fill="white"/>
<circle cx="414.444" cy="791.221" r="3.71722" fill="white"/>
<circle cx="598.822" cy="475.417" r="4.41058" fill="white"/>
<circle cx="278.279" cy="273.652" r="2.43648" fill="white"/>
<circle cx="287.449" cy="403.253" r="2.6578" fill="white"/>
<circle cx="877.88" cy="389.317" r="3.60623" fill="white"/>
<circle cx="14.3139" cy="751.035" r="3.77696" fill="white"/>
<circle cx="942.324" cy="338.377" r="4.47172" fill="white"/>
<circle cx="175.028" cy="634.222" r="2.49505" fill="white"/>
<circle cx="34.7876" cy="377.362" r="3.11713" fill="white"/>
<circle cx="45.6639" cy="161.141" r="3.94876" fill="white"/>
<circle cx="248.537" cy="202.5" r="3.1968" fill="white"/>
<circle cx="666.079" cy="550.686" r="2.48764" fill="white"/>
<circle cx="591.793" cy="718.829" r="3.17687" fill="white"/>
<circle cx="531.464" cy="335.427" r="2.9826" fill="white"/>
<circle cx="230.425" cy="414.927" r="3.71127" fill="white"/>
<circle cx="849.95" cy="632.77" r="3.44955" fill="white"/>
<circle cx="475.122" cy="601.753" r="2.35018" fill="white"/>
<circle cx="928.749" cy="285.679" r="3.76197" fill="white"/>
<circle cx="184.274" cy="238.994" r="3.85314" fill="white"/>
<circle cx="581.422" cy="744.687" r="2.84511" fill="white"/>
<circle cx="410.562" cy="759.627" r="3.69418" fill="white"/>
<circle cx="770.891" cy="211.628" r="3.43457" fill="white"/>
<circle cx="636.696" cy="839.775" r="4.31944" fill="white"/>
<circle cx="909.75" cy="452.646" r="4.49673" fill="white"/>
<circle cx="395.818" cy="559.231" r="4.347" fill="white"/>
<circle cx="549.69" cy="215.361" r="4.23819" fill="white"/>
<circle cx="753.679" cy="439.204" r="2.96548" fill="white"/>
<circle cx="816.93" cy="9.02781" r="4.15968" fill="white"/>
<circle cx="52.5201" cy="444.847" r="4.49366" fill="white"/>
<circle cx="755.632" cy="745.683" r="4.23065" fill="white"/>
<circle cx="209.947" cy="646.182" r="3.35491" fill="white"/>
<circle cx="275.414" cy="728.824" r="3.2619" fill="white"/>
<circle cx="859.118" cy="340.279" r="3.40987" fill="white"/>
<circle cx="604.699" cy="580.974" r="3.27283" fill="white"/>
<circle cx="372.908" cy="231.453" r="3.90829" fill="white"/>
<circle cx="798.155" cy="76.8008" r="4.26216" fill="white"/>
<circle cx="268.049" cy="10.3944" r="3.19767" fill="white"/>
<circle cx="491.727" cy="32.0649" r="4.05368" fill="white"/>
<circle cx="194.206" cy="226.606" r="3.42188" fill="white"/>
<circle cx="746.5" cy="688.264" r="3.13315" fill="white"/>
<circle cx="842.487" cy="752.05" r="2.70539" fill="white"/>
<circle cx="793.047" cy="243.034" r="3.03717" fill="white"/>
<circle cx="182.12" cy="675.471" r="4.44426" fill="white"/>
<circle cx="673.38" cy="506.019" r="4.306" fill="white"/>
<circle cx="540.127" cy="222.811" r="2.68701" fill="white"/>
<circle cx="838.92" cy="396.954" r="3.33807" fill="white"/>
<circle cx="85.7491" cy="672.545" r="2.38573" fill="white"/>
<circle cx="909.697" cy="539.711" r="2.50029" fill="white"/>
<circle cx="787.102" cy="619.451" r="4.44321" fill="white"/>
<circle cx="846.978" cy="455.766" r="2.57793" fill="white"/>
<circle cx="842.734" cy="500.816" r="3.67101" fill="white"/>
<circle cx="307.83" cy="465.184" r="3.02283" fill="white"/>
<circle cx="434.27" cy="328.158" r="4.06965" fill="white"/>
<circle cx="572.854" cy="358.043" r="3.34805" fill="white"/>
<circle cx="450.767" cy="472.149" r="4.28028" fill="white"/>
<circle cx="605.207" cy="135.154" r="2.44912" fill="white"/>
<circle cx="292.853" cy="168.942" r="3.78175" fill="white"/>
<circle cx="647.885" cy="405.686" r="4.42831" fill="white"/>
</g>
</g>
<defs>
<clipPath id="clip0_7_2117">
<rect width="1000" height="1000" fill="white" transform="translate(0 -15)"/>
</clipPath>
<clipPath id="clip1_7_2117">
<rect width="1000" height="1000" fill="white" transform="translate(0 -15)"/>
</clipPath>
</defs>
</svg>
